<mxfile host="65bd71144e">
    <diagram id="EqIWDWUptiQl0Frm8XXY" name="Page-1">
        <mxGraphModel dx="861" dy="1011" grid="1" gridSize="10" guides="1" tooltips="1" connect="1" arrows="1" fold="1" page="1" pageScale="1" pageWidth="827" pageHeight="1169" math="0" shadow="0">
            <root>
                <mxCell id="0"/>
                <mxCell id="1" parent="0"/>
                <mxCell id="28" value="" style="rounded=1;whiteSpace=wrap;html=1;labelBackgroundColor=none;fontSize=15;fontColor=#000000;fillColor=#737373;" vertex="1" parent="1">
                    <mxGeometry x="20" y="10" width="460" height="860" as="geometry"/>
                </mxCell>
                <mxCell id="3" value="Input Image&lt;br style=&quot;font-size: 15px;&quot;&gt;Size: 28X28" style="ellipse;whiteSpace=wrap;html=1;fillColor=#e3c800;strokeColor=#B09500;fontColor=#000000;fontSize=15;fontStyle=1" parent="1" vertex="1">
                    <mxGeometry x="45" y="20" width="110" height="80" as="geometry"/>
                </mxCell>
                <mxCell id="5" value="&lt;div style=&quot;font-family: &amp;#34;menlo&amp;#34; , &amp;#34;monaco&amp;#34; , &amp;#34;courier new&amp;#34; , monospace ; line-height: 18px&quot;&gt;&lt;font color=&quot;#000000&quot;&gt;MNIST ENCODER&lt;/font&gt;&lt;/div&gt;" style="rounded=1;whiteSpace=wrap;html=1;fillColor=#b0e3e6;strokeColor=#0e8088;" vertex="1" parent="1">
                    <mxGeometry x="40" y="150" width="120" height="60" as="geometry"/>
                </mxCell>
                <mxCell id="7" value="Encoded MNIST&lt;br&gt;Size: 15" style="ellipse;whiteSpace=wrap;html=1;fillColor=#f0a30a;strokeColor=#BD7000;fontColor=#000000;" vertex="1" parent="1">
                    <mxGeometry x="45" y="260" width="120" height="80" as="geometry"/>
                </mxCell>
                <mxCell id="8" value="&lt;font style=&quot;font-size: 15px;&quot;&gt;&lt;span style=&quot;font-size: 15px;&quot;&gt;Encoded Random Number&lt;br style=&quot;font-size: 15px;&quot;&gt;Size: 10&lt;/span&gt;&lt;/font&gt;" style="ellipse;whiteSpace=wrap;html=1;fillColor=#e3c800;strokeColor=#B09500;fontColor=#000000;fontStyle=1;fontSize=15;" vertex="1" parent="1">
                    <mxGeometry x="305" y="240" width="150" height="100" as="geometry"/>
                </mxCell>
                <mxCell id="25" value="" style="edgeStyle=orthogonalEdgeStyle;rounded=0;orthogonalLoop=1;jettySize=auto;html=1;" edge="1" parent="1" source="9" target="11">
                    <mxGeometry relative="1" as="geometry"/>
                </mxCell>
                <mxCell id="9" value="CONCATENATE&lt;br&gt;Size: 25" style="rounded=1;whiteSpace=wrap;html=1;labelBackgroundColor=none;fillColor=#d0cee2;strokeColor=#56517e;fontColor=#000000;" vertex="1" parent="1">
                    <mxGeometry x="180" y="410" width="120" height="60" as="geometry"/>
                </mxCell>
                <mxCell id="11" value="ENCODER&lt;br&gt;Size: 40" style="rounded=1;whiteSpace=wrap;html=1;labelBackgroundColor=none;fillColor=#d0cee2;strokeColor=#56517e;fontColor=#000000;" vertex="1" parent="1">
                    <mxGeometry x="180" y="520" width="120" height="60" as="geometry"/>
                </mxCell>
                <mxCell id="12" value="&lt;div style=&quot;font-family: menlo, monaco, &amp;quot;courier new&amp;quot;, monospace; line-height: 18px;&quot;&gt;MNIST DECODER&lt;br&gt;&lt;/div&gt;" style="rounded=1;whiteSpace=wrap;html=1;labelBackgroundColor=none;fillColor=#d0cee2;strokeColor=#56517e;fontColor=#000000;" vertex="1" parent="1">
                    <mxGeometry x="60" y="640" width="120" height="60" as="geometry"/>
                </mxCell>
                <mxCell id="13" value="&lt;div style=&quot;font-family: menlo, monaco, &amp;quot;courier new&amp;quot;, monospace; line-height: 18px;&quot;&gt;SUM DECODER&lt;br&gt;&lt;/div&gt;" style="rounded=1;whiteSpace=wrap;html=1;labelBackgroundColor=none;fillColor=#d0cee2;strokeColor=#56517e;fontColor=#000000;" vertex="1" parent="1">
                    <mxGeometry x="300" y="640" width="120" height="60" as="geometry"/>
                </mxCell>
                <mxCell id="14" value="" style="endArrow=classic;html=1;exitX=0.5;exitY=1;exitDx=0;exitDy=0;entryX=0.5;entryY=0;entryDx=0;entryDy=0;" edge="1" parent="1" source="3" target="5">
                    <mxGeometry width="50" height="50" relative="1" as="geometry">
                        <mxPoint x="390" y="410" as="sourcePoint"/>
                        <mxPoint x="440" y="360" as="targetPoint"/>
                    </mxGeometry>
                </mxCell>
                <mxCell id="15" value="" style="endArrow=classic;html=1;exitX=0.5;exitY=1;exitDx=0;exitDy=0;" edge="1" parent="1" source="5">
                    <mxGeometry width="50" height="50" relative="1" as="geometry">
                        <mxPoint x="104.5" y="220" as="sourcePoint"/>
                        <mxPoint x="100" y="260" as="targetPoint"/>
                    </mxGeometry>
                </mxCell>
                <mxCell id="16" value="" style="endArrow=classic;html=1;entryX=0.5;entryY=0;entryDx=0;entryDy=0;exitX=0.5;exitY=1;exitDx=0;exitDy=0;edgeStyle=orthogonalEdgeStyle;" edge="1" parent="1" source="7" target="9">
                    <mxGeometry width="50" height="50" relative="1" as="geometry">
                        <mxPoint x="150" y="420" as="sourcePoint"/>
                        <mxPoint x="115" y="270" as="targetPoint"/>
                        <Array as="points">
                            <mxPoint x="105" y="370"/>
                            <mxPoint x="240" y="370"/>
                        </Array>
                    </mxGeometry>
                </mxCell>
                <mxCell id="17" value="" style="endArrow=classic;html=1;entryX=0.5;entryY=0;entryDx=0;entryDy=0;exitX=0.5;exitY=1;exitDx=0;exitDy=0;edgeStyle=orthogonalEdgeStyle;" edge="1" parent="1" source="8" target="9">
                    <mxGeometry width="50" height="50" relative="1" as="geometry">
                        <mxPoint x="414" y="380" as="sourcePoint"/>
                        <mxPoint x="549" y="430" as="targetPoint"/>
                        <Array as="points">
                            <mxPoint x="380" y="370"/>
                            <mxPoint x="240" y="370"/>
                        </Array>
                    </mxGeometry>
                </mxCell>
                <mxCell id="20" value="" style="endArrow=classic;html=1;exitX=0.5;exitY=1;exitDx=0;exitDy=0;" edge="1" parent="1" source="9" target="11">
                    <mxGeometry width="50" height="50" relative="1" as="geometry">
                        <mxPoint x="110" y="220" as="sourcePoint"/>
                        <mxPoint x="110" y="270" as="targetPoint"/>
                    </mxGeometry>
                </mxCell>
                <mxCell id="21" value="" style="endArrow=classic;html=1;entryX=0.5;entryY=0;entryDx=0;entryDy=0;exitX=0.5;exitY=1;exitDx=0;exitDy=0;edgeStyle=orthogonalEdgeStyle;" edge="1" parent="1" source="11" target="12">
                    <mxGeometry width="50" height="50" relative="1" as="geometry">
                        <mxPoint x="115" y="350" as="sourcePoint"/>
                        <mxPoint x="250" y="420" as="targetPoint"/>
                        <Array as="points">
                            <mxPoint x="240" y="600"/>
                            <mxPoint x="120" y="600"/>
                        </Array>
                    </mxGeometry>
                </mxCell>
                <mxCell id="22" value="" style="endArrow=classic;html=1;entryX=0.5;entryY=0;entryDx=0;entryDy=0;exitX=0.5;exitY=1;exitDx=0;exitDy=0;edgeStyle=orthogonalEdgeStyle;" edge="1" parent="1" source="11" target="13">
                    <mxGeometry width="50" height="50" relative="1" as="geometry">
                        <mxPoint x="250" y="590" as="sourcePoint"/>
                        <mxPoint x="130" y="650" as="targetPoint"/>
                        <Array as="points">
                            <mxPoint x="240" y="600"/>
                            <mxPoint x="360" y="600"/>
                        </Array>
                    </mxGeometry>
                </mxCell>
                <mxCell id="23" value="&lt;font color=&quot;#000000&quot; style=&quot;font-size: 15px;&quot;&gt;&lt;span style=&quot;font-family: menlo, monaco, &amp;quot;courier new&amp;quot;, monospace; font-size: 15px;&quot;&gt;MNIST OUTPUT&lt;/span&gt;&lt;br style=&quot;font-family: menlo, monaco, &amp;quot;courier new&amp;quot;, monospace; font-size: 15px;&quot;&gt;&lt;span style=&quot;font-family: menlo, monaco, &amp;quot;courier new&amp;quot;, monospace; font-size: 15px;&quot;&gt;Size: 10&lt;/span&gt;&lt;/font&gt;" style="ellipse;whiteSpace=wrap;html=1;fillColor=#6d8764;strokeColor=#3A5431;fontColor=#ffffff;fontSize=15;fontStyle=1" vertex="1" parent="1">
                    <mxGeometry x="70" y="750" width="110" height="80" as="geometry"/>
                </mxCell>
                <mxCell id="24" value="&lt;font color=&quot;#000000&quot; style=&quot;font-size: 15px;&quot;&gt;&lt;span style=&quot;font-family: menlo, monaco, &amp;quot;courier new&amp;quot;, monospace; font-size: 15px;&quot;&gt;SUM OUTPUT&lt;/span&gt;&lt;br style=&quot;font-family: menlo, monaco, &amp;quot;courier new&amp;quot;, monospace; font-size: 15px;&quot;&gt;&lt;span style=&quot;font-family: menlo, monaco, &amp;quot;courier new&amp;quot;, monospace; font-size: 15px;&quot;&gt;Size: 19&lt;/span&gt;&lt;/font&gt;" style="ellipse;whiteSpace=wrap;html=1;fillColor=#6d8764;strokeColor=#3A5431;fontColor=#ffffff;fontSize=15;fontStyle=1" vertex="1" parent="1">
                    <mxGeometry x="305" y="750" width="110" height="80" as="geometry"/>
                </mxCell>
                <mxCell id="26" value="" style="endArrow=classic;html=1;entryX=0.442;entryY=-0.035;entryDx=0;entryDy=0;entryPerimeter=0;" edge="1" parent="1" source="12" target="23">
                    <mxGeometry width="50" height="50" relative="1" as="geometry">
                        <mxPoint x="150" y="730" as="sourcePoint"/>
                        <mxPoint x="120" y="704" as="targetPoint"/>
                    </mxGeometry>
                </mxCell>
                <mxCell id="27" value="" style="endArrow=classic;html=1;entryX=0.5;entryY=0;entryDx=0;entryDy=0;exitX=0.5;exitY=1;exitDx=0;exitDy=0;" edge="1" parent="1" source="13" target="24">
                    <mxGeometry width="50" height="50" relative="1" as="geometry">
                        <mxPoint x="360.3437305699482" y="702.8" as="sourcePoint"/>
                        <mxPoint x="359.5" y="750" as="targetPoint"/>
                    </mxGeometry>
                </mxCell>
            </root>
        </mxGraphModel>
    </diagram>
</mxfile>